<svg width="139" height="51" viewBox="0 0 139 51" fill="none" xmlns="http://www.w3.org/2000/svg">
<path d="M12.5093 20.4891C12.6427 19.6715 12.0882 18.9005 11.2706 18.767C10.4529 18.6336 9.68194 19.1881 9.54846 20.0057L12.5093 20.4891ZM9.70969 31.6122L8.21097 31.5501C8.21038 31.5643 8.21 31.5786 8.20981 31.5928L9.70969 31.6122ZM10.8206 38.6836L12.2364 38.1883V38.1883L10.8206 38.6836ZM18.1729 43.7251C18.958 43.4607 19.3801 42.6099 19.1157 41.8248C18.8513 41.0397 18.0005 40.6176 17.2154 40.882L18.1729 43.7251ZM8.76443 37.1721C9.18492 37.8858 10.1044 38.1236 10.8182 37.7031C11.532 37.2826 11.7697 36.3631 11.3492 35.6493L8.76443 37.1721ZM3.32209 34.6428L2.29558 33.5491L2.26324 33.5794L2.23276 33.6116L3.32209 34.6428ZM3.39152 41.9668L2.11155 42.7489L2.14981 42.8115L2.194 42.8701L3.39152 41.9668ZM11.7926 47.6913L11.4955 49.1616H11.4955L11.7926 47.6913ZM19.4994 47.3546L19.6907 48.8423L19.7806 48.8307L19.8684 48.8084L19.4994 47.3546ZM26.3035 42.7245L27.5125 43.6124L27.5587 43.5495L27.5981 43.4822L26.3035 42.7245ZM29.1502 33.5484L30.6491 33.6054V33.6054L29.1502 33.5484ZM26.7895 23.7831L28.1044 23.0612L28.0664 22.992L28.0213 22.9271L26.7895 23.7831ZM19.2216 17.0485L18.0903 16.0635L16.7695 17.5807L18.6004 18.4138L19.2216 17.0485ZM19.7748 8.97573C19.3148 8.28676 18.3834 8.10117 17.6944 8.56119C17.0054 9.02121 16.8198 9.95264 17.2798 10.6416L19.7748 8.97573ZM16.1945 8.40989C16.2124 9.23813 16.8983 9.89506 17.7265 9.8772C18.5547 9.85933 19.2117 9.17344 19.1938 8.3452L16.1945 8.40989ZM15.6807 4L16.676 2.87778L14.3697 0.832304L14.1834 3.90938L15.6807 4ZM13.1639 7.72697C12.6651 8.38841 12.7969 9.32896 13.4584 9.82774C14.1198 10.3265 15.0604 10.1947 15.5592 9.53323L13.1639 7.72697ZM13.7918 10.8799C14.6159 10.9645 15.3525 10.365 15.4371 9.54085C15.5217 8.71675 14.9221 7.98014 14.098 7.89558L13.7918 10.8799ZM10.404 11.4082L9.02692 10.8134L8.95546 10.9789L8.92523 11.1566L10.404 11.4082ZM8.3905 14.2704L7.63938 12.972L6.77259 13.4735L6.90335 14.4663L8.3905 14.2704ZM11.5973 20.8261C12.3354 21.2024 13.2387 20.9091 13.615 20.1711C13.9912 19.433 13.6979 18.5297 12.9599 18.1534L11.5973 20.8261ZM9.54846 20.0057C8.67 25.3865 8.4498 25.7879 8.21097 31.5501L11.2084 31.6743C11.4387 26.1187 11.6278 25.888 12.5093 20.4891L9.54846 20.0057ZM8.20981 31.5928C8.16547 35.0237 8.52577 36.6665 9.40471 39.179L12.2364 38.1883C11.4662 35.9865 11.17 34.6916 11.2096 31.6316L8.20981 31.5928ZM9.40471 39.1789C10.6899 42.8527 14.8629 44.8399 18.1729 43.7251L17.2154 40.882C15.5265 41.4508 13.0015 40.3754 12.2364 38.1883L9.40471 39.1789ZM11.3492 35.6493C10.3618 33.9731 8.98324 32.6591 7.31471 32.1754C5.55747 31.666 3.77217 32.1633 2.29558 33.5491L4.34861 35.7366C5.16135 34.9738 5.87554 34.8817 6.47941 35.0568C7.17198 35.2576 8.01614 35.9018 8.76443 37.1721L11.3492 35.6493ZM2.23276 33.6116C1.25513 34.6444 0.569761 35.9629 0.504994 37.5886C0.441528 39.1816 0.980736 40.8982 2.11155 42.7489L4.6715 41.1847C3.73689 39.6551 3.47009 38.5245 3.50262 37.708C3.53384 36.9242 3.84647 36.2708 4.41143 35.674L2.23276 33.6116ZM2.194 42.8701C3.56148 44.683 4.73702 46.0658 6.18062 47.0858C7.65411 48.127 9.2992 48.7177 11.4955 49.1616L12.0897 46.221C10.1202 45.823 8.91989 45.3481 7.91188 44.6358C6.87399 43.9024 5.93191 42.8438 4.58905 41.0635L2.194 42.8701ZM11.4955 49.1616C13.6936 49.6058 15.053 49.6385 16.2979 49.468C16.8854 49.3876 17.4327 49.263 17.9433 49.1533C18.4661 49.0409 19.0106 48.9298 19.6907 48.8423L19.308 45.8668C18.5032 45.9703 17.8627 46.1021 17.3129 46.2202C16.751 46.341 16.3383 46.4345 15.891 46.4957C15.0665 46.6086 14.0574 46.6186 12.0897 46.221L11.4955 49.1616ZM19.8684 48.8084C21.5782 48.3744 22.9524 47.8628 24.1924 47.0209C25.4299 46.1808 26.436 45.078 27.5125 43.6124L25.0946 41.8365C24.1144 43.171 23.3446 43.9704 22.5073 44.5389C21.6725 45.1057 20.6729 45.509 19.1303 45.9007L19.8684 48.8084ZM27.5981 43.4822C28.3357 42.2219 29.0842 41.0171 29.6385 39.505C30.203 37.9646 30.552 36.1607 30.6491 33.6054L27.6512 33.4915C27.5628 35.8189 27.2522 37.2981 26.8217 38.4726C26.3808 39.6754 25.7988 40.6174 25.009 41.9667L27.5981 43.4822ZM30.6491 33.6054C30.8071 29.4463 30.11 26.7137 28.1044 23.0612L25.4747 24.5051C27.2337 27.7085 27.7875 29.9057 27.6512 33.4915L30.6491 33.6054ZM28.0213 22.9271C26.7179 21.0516 25.5905 19.6403 24.3111 18.4934C23.0159 17.3323 21.6227 16.493 19.8429 15.6832L18.6004 18.4138C20.1902 19.1372 21.3017 19.8246 22.3085 20.7271C23.331 21.6438 24.3027 22.8332 25.5578 24.6392L28.0213 22.9271ZM20.353 18.0334C22.314 15.7808 21.9923 12.2968 19.7748 8.97573L17.2798 10.6416C19.1425 13.4313 18.7677 15.2855 18.0903 16.0635L20.353 18.0334ZM19.1938 8.3452C19.1742 7.43573 19.0823 6.49774 18.6892 5.54698C18.2916 4.58516 17.6373 3.73037 16.676 2.87778L14.6854 5.12222C15.4017 5.75749 15.7361 6.25588 15.9168 6.69307C16.1021 7.14132 16.1781 7.64817 16.1945 8.40989L19.1938 8.3452ZM14.1834 3.90938C14.0554 6.02455 13.9071 6.74142 13.1639 7.72697L15.5592 9.53323C16.8677 7.79793 17.0438 6.3066 17.1779 4.09062L14.1834 3.90938ZM14.098 7.89558C12.899 7.77256 11.7673 7.81743 10.8108 8.41954C9.87029 9.01161 9.39201 9.96809 9.02692 10.8134L11.781 12.0029C12.134 11.1857 12.3145 11.0179 12.409 10.9584C12.4877 10.9089 12.7675 10.7748 13.7918 10.8799L14.098 7.89558ZM8.92523 11.1566C8.79991 11.8932 8.63823 12.1802 8.5207 12.3294C8.38633 12.4999 8.18498 12.6564 7.63938 12.972L9.14163 15.5688C9.69891 15.2464 10.3551 14.8486 10.8772 14.186C11.4161 13.502 11.7097 12.6769 11.8827 11.6597L8.92523 11.1566ZM6.90335 14.4663C7.09162 15.8958 7.42446 17.1408 8.22583 18.2347C9.01649 19.314 10.1473 20.0869 11.5973 20.8261L12.9599 18.1534C11.6647 17.4931 11.0258 16.9803 10.6459 16.4618C10.2767 15.9578 10.0381 15.2929 9.87766 14.0745L6.90335 14.4663Z" fill="#F3F3F3"/>
<path d="M24.6592 45.0458C27.1027 45.9147 31.4997 43.1801 32.3547 39.4487" stroke="#F3F3F3" stroke-width="2" stroke-linecap="round" stroke-linejoin="round"/>
<path d="M35.1323 48.2727C37.1763 48.1607 38.3523 47.2367 38.9963 46.2847C39.3043 47.2367 40.0323 48.0207 41.7403 48.0207H41.8243C46.0803 47.9087 47.5643 44.4367 47.5643 44.4367C47.5643 44.3247 47.3963 44.2967 47.2003 44.2967C46.9763 44.2967 46.7523 44.3247 46.7243 44.4087C46.6963 44.5207 45.5483 46.3127 43.6163 46.8727C43.5323 46.9007 43.4203 46.9007 43.3643 46.9007C42.9163 46.9007 42.7763 46.5087 42.7763 45.9207C42.7763 45.3327 42.9163 44.6047 43.0843 43.9327L45.8003 35.0567H45.6323C45.6323 35.0567 45.2403 35.6447 44.5123 35.6727H41.4603C41.2643 36.3167 41.0403 36.9887 40.8163 37.6327C40.6763 35.9247 39.1083 35.2807 37.4283 35.2247H37.2883C33.6483 35.2247 31.2683 39.3967 31.0443 43.0087L31.0163 43.5127C31.0163 46.0887 32.2203 48.2727 34.9083 48.2727H35.1323ZM36.0843 46.7887C35.4403 46.7887 35.1603 45.9207 35.1603 44.6887C35.1603 41.8327 36.6723 37.0727 38.7723 36.7087L39.0243 36.6807C40.0883 36.6807 40.3123 38.0247 40.4243 38.8927L40.2843 39.3127H40.3123L39.0803 43.4007C39.0523 43.5687 38.9123 44.0727 38.8563 44.6887C38.3803 45.6407 37.0643 46.7607 36.0843 46.7887ZM47.6708 48.2727C51.8988 48.1327 53.4388 44.4367 53.4388 44.4367C53.4388 44.3247 53.2708 44.2967 53.0748 44.2967C52.8788 44.2967 52.6548 44.3247 52.6268 44.4087C52.5708 44.5207 51.4228 46.3127 49.5188 46.8727C49.4348 46.9007 49.3228 46.9007 49.2668 46.9007C48.8188 46.9007 48.6508 46.4807 48.6508 45.8927C48.6508 45.3327 48.8188 44.6047 48.9868 43.9327L51.9548 34.1047H54.5308L54.7828 33.4327H52.1788L53.6068 28.8127H53.4388C53.4388 28.8127 53.0468 29.4007 52.3188 29.4287H49.2668C48.8468 30.7447 48.3988 32.1167 48.0068 33.4327H46.0188L45.7668 34.1047H47.7828C46.7188 37.6047 45.4308 41.8047 44.9548 43.4287C44.8988 43.6807 44.7028 44.4087 44.7028 45.2487C44.7028 46.6487 45.2068 48.2727 47.5588 48.2727H47.6708ZM60.9323 48.2727C65.1603 48.1327 66.6163 44.4087 66.6163 44.4087C66.6163 44.2967 66.4483 44.2687 66.2523 44.2687C66.0563 44.2687 65.8323 44.2967 65.8043 44.3807C65.7483 44.4927 64.2643 46.4247 62.7243 46.8727C62.5563 46.9287 62.4443 46.9287 62.3043 46.9287C61.8563 46.9287 61.7163 46.6207 61.7163 46.1447C61.7163 45.5567 61.9683 44.6887 62.1643 43.9327L64.8803 35.0567H64.7123C64.7123 35.0567 64.3203 35.6447 63.5923 35.6727H60.5403C59.7563 38.2487 57.3203 46.9287 54.9123 46.9287H54.7443C54.4083 46.8727 54.2963 46.5647 54.2963 46.1447C54.2963 45.5287 54.5483 44.6607 54.7443 43.9327L57.4603 35.0567H57.3203C57.3203 35.0567 56.9003 35.6447 56.2003 35.6727H53.1203L50.7403 43.4007C50.5443 44.1287 50.4323 44.7727 50.4323 45.3327C50.4323 47.2647 51.5243 48.2727 52.9803 48.2727C54.4363 48.2727 56.8443 47.7407 57.9363 44.8007V45.1367C57.9363 46.5087 58.4403 48.2727 60.8203 48.2727H60.9323ZM66.5139 48.0487L69.0899 39.8447C70.0419 38.7807 71.8059 37.1567 72.7579 37.1567C73.4859 37.1847 73.6259 37.8007 73.6259 38.3327C73.6259 38.7247 73.5419 39.0887 73.5419 39.0887C73.4579 39.3127 73.4299 39.5647 73.4299 39.7887C73.4299 40.7127 74.0179 41.5807 74.5499 42.1127C76.0059 43.4847 78.1059 43.6247 78.9179 43.6247H79.2539L79.1419 43.1207C77.0979 43.0927 75.9499 42.5047 75.9499 41.6087C75.9499 41.0487 76.4259 40.3487 77.4619 39.6207C77.5739 39.5087 77.6859 39.1167 77.6859 38.6127C77.6859 37.4647 77.0699 35.7847 74.3539 35.7567C72.5339 35.7567 70.4899 37.5207 69.5099 38.5007L70.5459 35.0567H70.3779C70.3779 35.0567 69.9859 35.6447 69.2579 35.6727H66.2059L63.7699 43.5687C63.6299 44.1007 63.5459 44.6607 63.5459 45.1647C63.5459 46.7607 64.3299 48.0487 66.4019 48.0487H66.5139ZM82.0329 34.8327C83.1249 34.8327 84.0209 33.9367 84.0209 32.8727C84.0209 31.7807 83.1249 30.8847 82.0329 30.8847C80.9409 30.8847 80.0729 31.7807 80.0729 32.8727C80.0729 33.9367 80.9409 34.8327 82.0329 34.8327ZM79.8209 48.2727C81.9489 48.2727 84.5529 46.7887 85.5049 44.4367C85.5049 44.3247 85.3369 44.2967 85.1409 44.2967C84.9449 44.2967 84.7209 44.3247 84.6929 44.4087C84.6369 44.5207 83.4889 46.2847 81.5849 46.8447L81.3049 46.9007C80.8849 46.9007 80.7169 46.4807 80.7169 45.8927C80.7169 45.3327 80.8849 44.5767 81.0529 43.9047L83.7689 35.0567H83.6009C83.6009 35.0567 83.2089 35.6447 82.4809 35.6727H79.4289L77.0209 43.4287C76.8249 44.1007 76.7409 44.6887 76.7409 45.2207C76.7409 47.3487 78.1409 48.2727 79.8209 48.2727ZM92.9105 47.9647C93.7785 47.9647 94.6185 47.7687 95.0945 47.3767H94.9265C94.5905 47.3767 93.7785 47.2927 93.5545 46.2287C93.4985 46.0047 93.4985 45.7527 93.4985 45.5287C93.4985 44.6887 93.7785 43.8487 94.0305 43.0647L96.3545 43.0927L104.474 43.0367C113.91 42.9527 119.986 37.1287 119.986 32.0327C119.986 28.1127 116.346 24.6687 107.834 24.6687H90.2785C84.8745 24.6687 82.7465 27.0487 82.7465 29.0647V29.1767C82.8025 30.5767 83.9505 31.7807 85.7425 31.7807C86.3025 31.7807 86.9185 31.6687 87.5625 31.4167C87.5625 31.4167 85.9105 30.1007 85.9105 29.1767V29.0087C86.0785 26.8807 88.7385 26.2367 91.0905 26.1807H95.1225C93.7505 30.5767 90.3625 41.1327 89.7465 43.3727C89.6625 43.5967 89.4945 44.2967 89.4945 45.0527C89.4945 45.4447 89.5505 45.8927 89.6905 46.2847C90.1385 47.4887 91.5665 47.9647 92.9105 47.9647ZM99.7705 41.1887C98.3425 41.1887 96.7185 41.1607 94.6185 41.1047L99.2945 26.1807C100.442 26.1527 101.814 26.1527 103.27 26.1527H107.75C111.418 26.1807 115.254 28.3367 115.254 31.7807V31.9767C115.086 36.5687 110.438 40.9087 104.334 41.1047C102.766 41.1607 101.394 41.1887 99.7705 41.1887ZM123.769 48.1887C127.409 48.1887 130.013 46.5087 131.021 44.7167C131.021 44.6047 131.021 44.3247 130.825 44.3247C130.629 44.3247 130.349 44.4927 130.125 44.7167C128.417 46.9007 125.477 47.0967 124.021 47.0967H123.573C122.201 47.0407 121.081 46.3687 121.081 44.4087V44.0727C125.953 44.0727 128.417 41.5527 128.417 38.9487C128.417 37.1007 127.045 35.4487 124.301 35.3647C121.417 35.3647 118.141 36.7927 117.161 41.2447C117.021 41.8327 116.965 42.4207 116.965 42.9807C116.965 45.6967 118.505 48.1327 122.565 48.1327H122.621C123.013 48.1607 123.405 48.1887 123.769 48.1887ZM121.417 43.4567H121.137C121.473 40.4327 122.845 36.6527 124.777 36.6247C125.981 36.6247 126.653 37.6607 126.653 38.9487C126.653 40.9087 125.029 43.4567 121.417 43.4567ZM131.243 48.2727C135.471 48.1327 137.011 44.4367 137.011 44.4367C137.011 44.3247 136.843 44.2967 136.647 44.2967C136.451 44.2967 136.227 44.3247 136.199 44.4087C136.143 44.5207 134.995 46.3127 133.091 46.8727C133.007 46.9007 132.895 46.9007 132.839 46.9007C132.391 46.9007 132.223 46.4807 132.223 45.8927C132.223 45.3327 132.391 44.6047 132.559 43.9327L135.527 34.1047H138.103L138.355 33.4327H135.751L137.179 28.8127H137.011C137.011 28.8127 136.619 29.4007 135.891 29.4287H132.839C132.419 30.7447 131.971 32.1167 131.579 33.4327H129.591L129.339 34.1047H131.355C130.291 37.6047 129.003 41.8047 128.527 43.4287C128.471 43.6807 128.275 44.4087 128.275 45.2487C128.275 46.6487 128.779 48.2727 131.131 48.2727H131.243Z" fill="#F3F3F3"/>
</svg>
