<svg width="85" height="85" viewBox="0 0 85 85" fill="none" xmlns="http://www.w3.org/2000/svg">
<g clip-path="url(#clip0_272_12)">
<path fill-rule="evenodd" clip-rule="evenodd" d="M-0.0888672 16.946C-0.0888672 7.53737 7.53834 -0.0898438 16.947 -0.0898438H68.0546C77.4631 -0.0898438 85.0905 7.53737 85.0905 16.946V68.0536C85.0905 77.4621 77.4631 85.0895 68.0546 85.0895H16.947C7.53834 85.0895 -0.0888672 77.4621 -0.0888672 68.0536V16.946ZM16.947 8.42809C12.2427 8.42809 8.42906 12.2417 8.42906 16.946V68.0536C8.42906 72.7581 12.2427 76.5715 16.947 76.5715H42.5008V46.7588H38.2418C35.8896 46.7588 33.9829 44.852 33.9829 42.4998C33.9829 40.1476 35.8896 38.2408 38.2418 38.2408H42.5008V31.8524C42.5008 23.6198 49.1746 16.946 57.4072 16.946H59.9626C62.3148 16.946 64.2215 18.8528 64.2215 21.205C64.2215 23.5571 62.3148 25.464 59.9626 25.464H57.4072C53.879 25.464 51.0187 28.3241 51.0187 31.8524V38.2408H59.9626C62.3148 38.2408 64.2215 40.1476 64.2215 42.4998C64.2215 44.852 62.3148 46.7588 59.9626 46.7588H51.0187V76.5715H68.0546C72.759 76.5715 76.5725 72.7581 76.5725 68.0536V16.946C76.5725 12.2417 72.759 8.42809 68.0546 8.42809H16.947Z" fill="#974918"/>
</g>
<defs>
<clipPath id="clip0_272_12">
<rect width="85" height="85" fill="white"/>
</clipPath>
</defs>
</svg>
