<svg width="85" height="85" viewBox="0 0 85 85" fill="none" xmlns="http://www.w3.org/2000/svg">
<g clip-path="url(#clip0_272_8)">
<path fill-rule="evenodd" clip-rule="evenodd" d="M0 17C0 7.61115 7.61115 0 17 0H68C77.3887 0 85 7.61115 85 17V68C85 77.3887 77.3887 85 68 85H17C7.61115 85 0 77.3887 0 68V17ZM17 8.5C12.3056 8.5 8.5 12.3056 8.5 17V68C8.5 72.6945 12.3056 76.5 17 76.5H68C72.6945 76.5 76.5 72.6945 76.5 68V17C76.5 12.3056 72.6945 8.5 68 8.5H17ZM42.5 29.75C35.4582 29.75 29.75 35.4582 29.75 42.5C29.75 49.5418 35.4582 55.25 42.5 55.25C49.5418 55.25 55.25 49.5418 55.25 42.5C55.25 35.4582 49.5418 29.75 42.5 29.75ZM21.25 42.5C21.25 30.764 30.764 21.25 42.5 21.25C54.2359 21.25 63.75 30.764 63.75 42.5C63.75 54.2359 54.2359 63.75 42.5 63.75C30.764 63.75 21.25 54.2359 21.25 42.5ZM65.875 25.5C69.3957 25.5 72.25 22.6458 72.25 19.125C72.25 15.6042 69.3957 12.75 65.875 12.75C62.3543 12.75 59.5 15.6042 59.5 19.125C59.5 22.6458 62.3543 25.5 65.875 25.5Z" fill="#974918"/>
</g>
<defs>
<clipPath id="clip0_272_8">
<rect width="85" height="85" fill="white"/>
</clipPath>
</defs>
</svg>
