<svg width="151" height="58" viewBox="0 0 151 58" fill="none" xmlns="http://www.w3.org/2000/svg">
<path d="M14.0387 22.7706C14.1756 21.9536 13.6241 21.1803 12.8071 21.0434C11.9901 20.9066 11.2168 21.458 11.0799 22.2751L14.0387 22.7706ZM11.0165 35.4792L9.5179 35.4155C9.51728 35.4301 9.51687 35.4447 9.51668 35.4593L11.0165 35.4792ZM12.3157 43.541L10.9039 44.0476V44.0476L12.3157 43.541ZM20.8224 49.093C21.6095 48.8346 22.038 47.987 21.7796 47.1999C21.5212 46.4128 20.6737 45.9842 19.8866 46.2427L20.8224 49.093ZM10.1388 41.7255C10.5672 42.4345 11.4894 42.6619 12.1984 42.2335C12.9074 41.805 13.1348 40.8829 12.7063 40.1739L10.1388 41.7255ZM3.5462 38.9343L2.53368 37.8275L2.50098 37.8575L2.4701 37.8893L3.5462 38.9343ZM3.6274 47.2839L2.35644 48.0806L2.39576 48.1433L2.44108 48.2019L3.6274 47.2839ZM13.4525 53.8101L13.7424 52.3384L13.4525 53.8101ZM22.4656 53.4262L22.6523 54.9146L22.7401 54.9035L22.826 54.8823L22.4656 53.4262ZM30.4232 48.1477L31.6212 49.0503L31.6686 48.9874L31.7092 48.9198L30.4232 48.1477ZM33.7524 37.6866L35.2512 37.745L33.7524 37.6866ZM30.9916 26.5537L32.2985 25.8175L32.2593 25.748L32.213 25.683L30.9916 26.5537ZM22.1409 18.8758L21.0221 17.8767L19.6507 19.4123L21.5327 20.247L22.1409 18.8758ZM22.5664 9.7745C22.0982 9.09103 21.1647 8.91647 20.4812 9.38462C19.7977 9.85276 19.6232 10.7863 20.0913 11.4698L22.5664 9.7745ZM18.8548 9.02379C18.8732 9.85201 19.5594 10.5086 20.3876 10.4902C21.2159 10.4719 21.8724 9.78565 21.8541 8.95743L18.8548 9.02379ZM17.9997 4L18.9807 2.86528L16.6902 0.885007L16.5026 3.90705L17.9997 4ZM15.2705 8.36072C14.7636 9.01597 14.8838 9.95808 15.5391 10.465C16.1943 10.9719 17.1364 10.8516 17.6433 10.1963L15.2705 8.36072ZM15.8204 11.6348C16.6447 11.7173 17.3798 11.1159 17.4623 10.2916C17.5447 9.46726 16.9433 8.73218 16.119 8.64973L15.8204 11.6348ZM11.8285 12.4456L10.4571 11.838L10.3825 12.0064L10.3509 12.1878L11.8285 12.4456ZM9.47375 15.7087L8.73694 14.4022L7.85109 14.9017L7.98726 15.9096L9.47375 15.7087ZM13.3534 23.0023C14.0952 23.371 14.9955 23.0685 15.3642 22.3266C15.7329 21.5848 15.4303 20.6845 14.6885 20.3158L13.3534 23.0023ZM11.0799 22.2751C10.0524 28.4104 9.79671 28.8582 9.5179 35.4155L12.5152 35.5429C12.785 29.1975 13.0081 28.9246 14.0387 22.7706L11.0799 22.2751ZM9.51668 35.4593C9.4651 39.3497 9.88279 41.2023 10.9039 44.0476L13.7276 43.0343C12.8199 40.5052 12.4699 39.0086 12.5164 35.4991L9.51668 35.4593ZM10.9039 44.0476C12.3753 48.1477 17.1217 50.308 20.8224 49.093L19.8866 46.2427C17.7408 46.9471 14.654 45.6159 13.7276 43.0343L10.9039 44.0476ZM12.7063 40.1739C11.566 38.2869 9.99589 36.8461 8.13507 36.3203C6.19421 35.7718 4.20695 36.2967 2.53368 37.8275L4.55872 40.041C5.56284 39.1223 6.49876 38.9754 7.31923 39.2072C8.21974 39.4617 9.24914 40.2534 10.1388 41.7255L12.7063 40.1739ZM2.4701 37.8893C1.35935 39.0331 0.579518 40.4932 0.505701 42.2994C0.433273 44.0715 1.04813 45.9933 2.35644 48.0806L4.89836 46.4873C3.79114 44.7208 3.46336 43.3967 3.5032 42.4219C3.54165 41.4811 3.92899 40.6932 4.62231 39.9792L2.4701 37.8893ZM2.44108 48.2019C4.03935 50.2674 5.3959 51.8187 7.05073 52.9586C8.73339 54.1176 10.6168 54.7803 13.1626 55.2818L13.7424 52.3384C11.4163 51.8802 9.97202 51.328 8.75254 50.488C7.50524 49.6288 6.38522 48.3969 4.81372 46.366L2.44108 48.2019ZM13.1626 55.2818C15.7112 55.7839 17.267 55.8171 18.682 55.6282C19.3556 55.5383 19.9826 55.3992 20.5848 55.273C21.1987 55.1444 21.8448 55.0158 22.6523 54.9146L22.279 51.9379C21.3499 52.0544 20.61 52.2026 19.9696 52.3368C19.3174 52.4734 18.8218 52.583 18.2852 52.6546C17.28 52.7887 16.0658 52.7961 13.7424 52.3384L13.1626 55.2818ZM22.826 54.8823C24.8089 54.3916 26.382 53.8182 27.7967 52.8819C29.2105 51.9463 30.3686 50.7128 31.6212 49.0503L29.2252 47.245C28.0725 48.7748 27.1537 49.7099 26.141 50.3802C25.1292 51.0498 23.9261 51.5195 22.1053 51.9701L22.826 54.8823ZM31.7092 48.9198C32.5752 47.4775 33.4395 46.1211 34.0803 44.4168C34.7323 42.6829 35.1382 40.6454 35.2512 37.745L32.2535 37.6282C32.1496 40.2943 31.7841 41.9997 31.2723 43.361C30.7493 44.7518 30.0576 45.8427 29.1372 47.3755L31.7092 48.9198ZM35.2512 37.745C35.4348 33.0355 34.6275 29.9521 32.2985 25.8175L29.6847 27.2899C31.7584 30.9714 32.4141 33.5081 32.2535 37.6282L35.2512 37.745ZM32.213 25.683C30.6918 23.5492 29.385 21.9568 27.909 20.6669C26.418 19.3639 24.8128 18.4201 22.749 17.5047L21.5327 20.247C23.4097 21.0796 24.7338 21.8762 25.9349 22.9259C27.1511 23.9887 28.2993 25.3612 29.7702 27.4245L32.213 25.683ZM23.2596 19.875C25.468 17.4022 25.1354 13.5252 22.5664 9.7745L20.0913 11.4698C22.2941 14.6857 21.8993 16.8944 21.0221 17.8767L23.2596 19.875ZM21.8541 8.95743C21.8313 7.92848 21.7246 6.8845 21.278 5.83131C20.8272 4.76842 20.0844 3.81948 18.9807 2.86528L17.0187 5.13472C17.8769 5.87675 18.2904 6.47049 18.516 7.00255C18.7458 7.54429 18.8354 8.14749 18.8548 9.02379L21.8541 8.95743ZM16.5026 3.90705C16.3526 6.32165 16.1784 7.187 15.2705 8.36072L17.6433 10.1963C19.1349 8.26816 19.3401 6.61607 19.4968 4.09295L16.5026 3.90705ZM16.119 8.64973C14.7354 8.51134 13.493 8.56984 12.4544 9.2072C11.4236 9.83972 10.8853 10.8715 10.4571 11.838L13.2 13.0532C13.6114 12.1245 13.8436 11.8745 14.0234 11.7642C14.1954 11.6587 14.6038 11.5131 15.8204 11.6348L16.119 8.64973ZM10.3509 12.1878C10.2017 13.0424 10.0048 13.4042 9.83738 13.6113C9.65022 13.8429 9.37781 14.0408 8.73694 14.4022L10.2106 17.0153C10.8595 16.6493 11.59 16.2154 12.1706 15.4971C12.7709 14.7544 13.1064 13.8483 13.3062 12.7035L10.3509 12.1878ZM7.98726 15.9096C8.20602 17.5288 8.58996 18.9116 9.49718 20.1188C10.3907 21.3077 11.6734 22.1675 13.3534 23.0023L14.6885 20.3158C13.1578 19.5551 12.3709 18.9491 11.8954 18.3164C11.4337 17.702 11.1493 16.9074 10.9602 15.5079L7.98726 15.9096Z" fill="#974918"/>
<path d="M28.5 50.794C31.3577 51.7846 36.5 48.6671 37.5 44.4131" stroke="#974918" stroke-width="2" stroke-linecap="round" stroke-linejoin="round"/>
<path d="M40.06 50.2321C42.104 50.1201 43.28 49.1961 43.924 48.2441C44.232 49.1961 44.96 49.9801 46.668 49.9801H46.752C51.008 49.8681 52.492 46.3961 52.492 46.3961C52.492 46.2841 52.324 46.2561 52.128 46.2561C51.904 46.2561 51.68 46.2841 51.652 46.3681C51.624 46.4801 50.476 48.2721 48.544 48.8321C48.46 48.8601 48.348 48.8601 48.292 48.8601C47.844 48.8601 47.704 48.4681 47.704 47.8801C47.704 47.2921 47.844 46.5641 48.012 45.8921L50.728 37.0161H50.56C50.56 37.0161 50.168 37.6041 49.44 37.6321H46.388C46.192 38.2761 45.968 38.9481 45.744 39.5921C45.604 37.8841 44.036 37.2401 42.356 37.1841H42.216C38.576 37.1841 36.196 41.3561 35.972 44.9681L35.944 45.4721C35.944 48.0481 37.148 50.2321 39.836 50.2321H40.06ZM41.012 48.7481C40.368 48.7481 40.088 47.8801 40.088 46.6481C40.088 43.7921 41.6 39.0321 43.7 38.6681L43.952 38.6401C45.016 38.6401 45.24 39.9841 45.352 40.8521L45.212 41.2721H45.24L44.008 45.3601C43.98 45.5281 43.84 46.0321 43.784 46.6481C43.308 47.6001 41.992 48.7201 41.012 48.7481ZM52.5985 50.2321C56.8265 50.0921 58.3665 46.3961 58.3665 46.3961C58.3665 46.2841 58.1985 46.2561 58.0025 46.2561C57.8065 46.2561 57.5825 46.2841 57.5545 46.3681C57.4985 46.4801 56.3505 48.2721 54.4465 48.8321C54.3625 48.8601 54.2505 48.8601 54.1945 48.8601C53.7465 48.8601 53.5785 48.4401 53.5785 47.8521C53.5785 47.2921 53.7465 46.5641 53.9145 45.8921L56.8825 36.0641H59.4585L59.7105 35.3921H57.1065L58.5345 30.7721H58.3665C58.3665 30.7721 57.9745 31.3601 57.2465 31.3881H54.1945C53.7745 32.7041 53.3265 34.0761 52.9345 35.3921H50.9465L50.6945 36.0641H52.7105C51.6465 39.5641 50.3585 43.7641 49.8825 45.3881C49.8265 45.6401 49.6305 46.3681 49.6305 47.2081C49.6305 48.6081 50.1345 50.2321 52.4865 50.2321H52.5985ZM65.86 50.2321C70.088 50.0921 71.544 46.3681 71.544 46.3681C71.544 46.2561 71.376 46.2281 71.18 46.2281C70.984 46.2281 70.76 46.2561 70.732 46.3401C70.676 46.4521 69.192 48.3841 67.652 48.8321C67.484 48.8881 67.372 48.8881 67.232 48.8881C66.784 48.8881 66.644 48.5801 66.644 48.1041C66.644 47.5161 66.896 46.6481 67.092 45.8921L69.808 37.0161H69.64C69.64 37.0161 69.248 37.6041 68.52 37.6321H65.468C64.684 40.2081 62.248 48.8881 59.84 48.8881H59.672C59.336 48.8321 59.224 48.5241 59.224 48.1041C59.224 47.4881 59.476 46.6201 59.672 45.8921L62.388 37.0161H62.248C62.248 37.0161 61.828 37.6041 61.128 37.6321H58.048L55.668 45.3601C55.472 46.0881 55.36 46.7321 55.36 47.2921C55.36 49.2241 56.452 50.2321 57.908 50.2321C59.364 50.2321 61.772 49.7001 62.864 46.7601V47.0961C62.864 48.4681 63.368 50.2321 65.748 50.2321H65.86ZM71.4417 50.0081L74.0177 41.8041C74.9697 40.7401 76.7337 39.1161 77.6857 39.1161C78.4137 39.1441 78.5537 39.7601 78.5537 40.2921C78.5537 40.6841 78.4697 41.0481 78.4697 41.0481C78.3857 41.2721 78.3577 41.5241 78.3577 41.7481C78.3577 42.6721 78.9457 43.5401 79.4777 44.0721C80.9337 45.4441 83.0337 45.5841 83.8457 45.5841H84.1817L84.0697 45.0801C82.0257 45.0521 80.8777 44.4641 80.8777 43.5681C80.8777 43.0081 81.3537 42.3081 82.3897 41.5801C82.5017 41.4681 82.6137 41.0761 82.6137 40.5721C82.6137 39.4241 81.9977 37.7441 79.2817 37.7161C77.4617 37.7161 75.4177 39.4801 74.4377 40.4601L75.4737 37.0161H75.3057C75.3057 37.0161 74.9137 37.6041 74.1857 37.6321H71.1337L68.6977 45.5281C68.5577 46.0601 68.4737 46.6201 68.4737 47.1241C68.4737 48.7201 69.2577 50.0081 71.3297 50.0081H71.4417ZM86.9607 36.7921C88.0527 36.7921 88.9487 35.8961 88.9487 34.8321C88.9487 33.7401 88.0527 32.8441 86.9607 32.8441C85.8687 32.8441 85.0007 33.7401 85.0007 34.8321C85.0007 35.8961 85.8687 36.7921 86.9607 36.7921ZM84.7487 50.2321C86.8767 50.2321 89.4807 48.7481 90.4327 46.3961C90.4327 46.2841 90.2647 46.2561 90.0687 46.2561C89.8727 46.2561 89.6487 46.2841 89.6207 46.3681C89.5647 46.4801 88.4167 48.2441 86.5127 48.8041L86.2327 48.8601C85.8127 48.8601 85.6447 48.4401 85.6447 47.8521C85.6447 47.2921 85.8127 46.5361 85.9807 45.8641L88.6967 37.0161H88.5287C88.5287 37.0161 88.1367 37.6041 87.4087 37.6321H84.3567L81.9487 45.3881C81.7527 46.0601 81.6687 46.6481 81.6687 47.1801C81.6687 49.3081 83.0687 50.2321 84.7487 50.2321ZM97.8382 49.9241C98.7062 49.9241 99.5462 49.7281 100.022 49.3361H99.8542C99.5182 49.3361 98.7062 49.2521 98.4822 48.1881C98.4262 47.9641 98.4262 47.7121 98.4262 47.4881C98.4262 46.6481 98.7062 45.8081 98.9582 45.0241L101.282 45.0521L109.402 44.9961C118.838 44.9121 124.914 39.0881 124.914 33.9921C124.914 30.0721 121.274 26.6281 112.762 26.6281H95.2062C89.8022 26.6281 87.6742 29.0081 87.6742 31.0241V31.1361C87.7302 32.5361 88.8782 33.7401 90.6702 33.7401C91.2302 33.7401 91.8462 33.6281 92.4902 33.3761C92.4902 33.3761 90.8382 32.0601 90.8382 31.1361V30.9681C91.0062 28.8401 93.6662 28.1961 96.0182 28.1401H100.05C98.6782 32.5361 95.2902 43.0921 94.6742 45.3321C94.5902 45.5561 94.4222 46.2561 94.4222 47.0121C94.4222 47.4041 94.4782 47.8521 94.6182 48.2441C95.0662 49.4481 96.4942 49.9241 97.8382 49.9241ZM104.698 43.1481C103.27 43.1481 101.646 43.1201 99.5462 43.0641L104.222 28.1401C105.37 28.1121 106.742 28.1121 108.198 28.1121H112.678C116.346 28.1401 120.182 30.2961 120.182 33.7401V33.9361C120.014 38.5281 115.366 42.8681 109.262 43.0641C107.694 43.1201 106.322 43.1481 104.698 43.1481ZM128.697 50.1481C132.337 50.1481 134.941 48.4681 135.949 46.6761C135.949 46.5641 135.949 46.2841 135.753 46.2841C135.557 46.2841 135.277 46.4521 135.053 46.6761C133.345 48.8601 130.405 49.0561 128.949 49.0561H128.501C127.129 49.0001 126.009 48.3281 126.009 46.3681V46.0321C130.881 46.0321 133.345 43.5121 133.345 40.9081C133.345 39.0601 131.973 37.4081 129.229 37.3241C126.345 37.3241 123.069 38.7521 122.089 43.2041C121.949 43.7921 121.893 44.3801 121.893 44.9401C121.893 47.6561 123.433 50.0921 127.493 50.0921H127.549C127.941 50.1201 128.333 50.1481 128.697 50.1481ZM126.345 45.4161H126.065C126.401 42.3921 127.773 38.6121 129.705 38.5841C130.909 38.5841 131.581 39.6201 131.581 40.9081C131.581 42.8681 129.957 45.4161 126.345 45.4161ZM136.171 50.2321C140.399 50.0921 141.939 46.3961 141.939 46.3961C141.939 46.2841 141.771 46.2561 141.575 46.2561C141.379 46.2561 141.155 46.2841 141.127 46.3681C141.071 46.4801 139.923 48.2721 138.019 48.8321C137.935 48.8601 137.823 48.8601 137.767 48.8601C137.319 48.8601 137.151 48.4401 137.151 47.8521C137.151 47.2921 137.319 46.5641 137.487 45.8921L140.455 36.0641H143.031L143.283 35.3921H140.679L142.107 30.7721H141.939C141.939 30.7721 141.547 31.3601 140.819 31.3881H137.767C137.347 32.7041 136.899 34.0761 136.507 35.3921H134.519L134.267 36.0641H136.283C135.219 39.5641 133.931 43.7641 133.455 45.3881C133.399 45.6401 133.203 46.3681 133.203 47.2081C133.203 48.6081 133.707 50.2321 136.059 50.2321H136.171Z" fill="#974918"/>
</svg>
